<?xml version="1.0" standalone="no"?>
<!DOCTYPE svg PUBLIC "-//W3C//DTD SVG 20010904//EN"
 "http://www.w3.org/TR/2001/REC-SVG-20010904/DTD/svg10.dtd">
<svg version="1.0" xmlns="http://www.w3.org/2000/svg"
 width="305.000000pt" height="305.000000pt" viewBox="0 0 305.000000 305.000000"
 preserveAspectRatio="xMidYMid meet">
<metadata>
Created by potrace 1.14, written by Peter Selinger 2001-2017
</metadata>
<g transform="translate(0.000000,305.000000) scale(0.100000,-0.100000)"
fill="#000000" stroke="none">
<path d="M1288 2841 l-3 -146 -100 -36 c-215 -78 -343 -152 -445 -258 -105
-109 -152 -231 -153 -391 0 -113 17 -189 64 -285 41 -85 67 -117 139 -177 90
-73 290 -151 467 -182 7 -1 16 -5 20 -9 8 -9 11 -485 2 -499 -9 -15 -90 27
-137 72 -46 42 -86 114 -113 200 l-17 55 -232 3 -232 2 6 -27 c3 -16 9 -46 12
-67 25 -169 132 -361 265 -478 102 -89 273 -181 419 -224 l47 -14 -2 -137 c0
-76 1 -144 3 -151 3 -9 55 -12 216 -12 l213 0 -1 147 -1 147 30 8 c17 5 37 11
45 13 335 85 583 285 657 532 23 79 23 77 27 176 4 101 -17 213 -54 291 -57
119 -203 222 -415 294 -67 22 -180 56 -180 54 0 0 -22 6 -50 13 l-50 12 -3
232 c-3 259 -7 245 71 212 79 -34 140 -111 176 -222 l12 -36 225 0 226 1 -6
57 c-4 32 -16 90 -27 130 -78 282 -278 450 -649 546 l-35 9 -2 114 c-1 63 -2
129 -3 146 l0 31 -215 0 -214 -1 -3 -145z m7 -806 c1 -104 -3 -193 -8 -196
-15 -11 -107 10 -149 33 -67 37 -99 125 -74 206 13 45 73 101 138 128 96 41
93 48 93 -171z m571 -764 c178 -52 233 -216 111 -332 -18 -17 -45 -38 -61 -46
-31 -16 -152 -53 -173 -53 -10 0 -13 52 -13 226 l0 226 53 -6 c28 -3 66 -10
83 -15z"/>
</g>
</svg>
